<?xml version="1.0" encoding="UTF-8"?>
<!DOCTYPE svg PUBLIC "-//W3C//DTD SVG 1.1//EN" "http://www.w3.org/Graphics/SVG/1.1/DTD/svg11.dtd">
<svg version="1.2" xmlns="http://www.w3.org/2000/svg" xmlns:xlink="http://www.w3.org/1999/xlink" x="0" y="0" width="1139" height="1712" viewBox="0 0 1139 1712">
<style type="text/css"><![CDATA[
text { font:12px Dialog; }
]]></style>
<rect x="-485" y="-485" width="2109" height="2682" style="fill:rgb(255,255,255);stroke:none" />
<clipPath id="clip1"><path d="M14,14 L1125,14 L1125,1698 L14,1698 L14,14 Z" /></clipPath>
<path d="M210,1029 L210,460.6523438 C210,456.2382813 213.5859375,452.6523438 218,452.6523438 L232,452.6523438" style="fill:none;stroke:rgb(1,124,152);stroke-width:2" clip-path="url(#clip1)" />
<clipPath id="clip2"><path d="M14,14 L1125,14 L1125,1698 L14,1698 L14,14 Z" /></clipPath>
<path d="M210,1029 L210,1075.6523438 C210,1080.0703125 213.5859375,1083.6523438 218,1083.6523438 L232,1083.6523438" style="fill:none;stroke:rgb(0,178,161);stroke-width:2" clip-path="url(#clip2)" />
<clipPath id="clip3"><path d="M14,14 L1125,14 L1125,1698 L14,1698 L14,14 Z" /></clipPath>
<path d="M210,1029 L210,1598.7382813 C210,1603.15625 213.5859375,1606.7382813 218,1606.7382813 L232,1606.7382813" style="fill:none;stroke:rgb(255,221,0);stroke-width:2" clip-path="url(#clip3)" />
<clipPath id="clip4"><path d="M14,14 L1125,14 L1125,1698 L14,1698 L14,14 Z" /></clipPath>
<path d="M200,1029 L210,1029" style="fill:none;stroke:rgb(128,128,128);stroke-width:2" clip-path="url(#clip4)" />
<text x="48" y="1032" style="font:18px Dialog">正则表达式</text>
<clipPath id="clip5"><path d="M231,14 L845,14 L845,886 L231,886 L231,14 Z" /></clipPath>
<path d="M307,452.7226563 L307,115.6484375 L313,115.6484375" style="fill:none;stroke:rgb(1,124,152);stroke-width:2" clip-path="url(#clip5)" />
<clipPath id="clip6"><path d="M231,14 L845,14 L845,886 L231,886 L231,14 Z" /></clipPath>
<path d="M307,452.7226563 L307,262.6835938 L313,262.6835938" style="fill:none;stroke:rgb(1,124,152);stroke-width:2" clip-path="url(#clip6)" />
<clipPath id="clip7"><path d="M231,14 L845,14 L845,886 L231,886 L231,14 Z" /></clipPath>
<path d="M307,452.7226563 L307,391.6835938 L313,391.6835938" style="fill:none;stroke:rgb(1,124,152);stroke-width:2" clip-path="url(#clip7)" />
<clipPath id="clip8"><path d="M231,14 L845,14 L845,886 L231,886 L231,14 Z" /></clipPath>
<path d="M307,452.7226563 L307,565.6484375 L313,565.6484375" style="fill:none;stroke:rgb(1,124,152);stroke-width:2" clip-path="url(#clip8)" />
<clipPath id="clip9"><path d="M231,14 L845,14 L845,886 L231,886 L231,14 Z" /></clipPath>
<path d="M307,452.7226563 L307,696.7148438 L313,696.7148438" style="fill:none;stroke:rgb(1,124,152);stroke-width:2" clip-path="url(#clip9)" />
<clipPath id="clip10"><path d="M231,14 L845,14 L845,886 L231,886 L231,14 Z" /></clipPath>
<path d="M307,452.7226563 L307,790.6835938 L313,790.6835938" style="fill:none;stroke:rgb(1,124,152);stroke-width:2" clip-path="url(#clip10)" />
<clipPath id="clip11"><path d="M231,14 L845,14 L845,886 L231,886 L231,14 Z" /></clipPath>
<path d="M293,452.6523438 L307,452.7226563" style="fill:none;stroke:rgb(1,124,152);stroke-width:2" clip-path="url(#clip11)" />
<text x="245" y="454" style="font:13px Dialog">字符</text>
<clipPath id="clip12"><path d="M312,14 L764,14 L764,219 L312,219 L312,14 Z" /></clipPath>
<path d="M387,115.71875 L387,32.5625 C387,30.3554688 388.7929688,28.5625 391,28.5625 L393,28.5625" style="fill:none;stroke:rgb(1,124,152);stroke-width:2" clip-path="url(#clip12)" />
<clipPath id="clip13"><path d="M312,14 L764,14 L764,219 L312,219 L312,14 Z" /></clipPath>
<path d="M387,115.71875 L387,61.59375 C387,59.3867188 388.7929688,57.59375 391,57.59375 L393,57.59375" style="fill:none;stroke:rgb(1,124,152);stroke-width:2" clip-path="url(#clip13)" />
<clipPath id="clip14"><path d="M312,14 L764,14 L764,219 L312,219 L312,14 Z" /></clipPath>
<path d="M387,115.71875 L387,91.578125 C387,89.3710938 388.7929688,87.578125 391,87.578125 L393,87.578125" style="fill:none;stroke:rgb(1,124,152);stroke-width:2" clip-path="url(#clip14)" />
<clipPath id="clip15"><path d="M312,14 L764,14 L764,219 L312,219 L312,14 Z" /></clipPath>
<path d="M387,115.71875 C387,116.1992188 388.7929688,116.5859375 391,116.5859375 L393,116.5859375" style="fill:none;stroke:rgb(1,124,152);stroke-width:2" clip-path="url(#clip15)" />
<clipPath id="clip16"><path d="M312,14 L764,14 L764,219 L312,219 L312,14 Z" /></clipPath>
<path d="M387,115.71875 L387,141.5859375 C387,143.7929688 388.7929688,145.5859375 391,145.5859375 L393,145.5859375" style="fill:none;stroke:rgb(1,124,152);stroke-width:2" clip-path="url(#clip16)" />
<clipPath id="clip17"><path d="M312,14 L764,14 L764,219 L312,219 L312,14 Z" /></clipPath>
<path d="M387,115.71875 L387,170.5703125 C387,172.7773438 388.7929688,174.5703125 391,174.5703125 L393,174.5703125" style="fill:none;stroke:rgb(1,124,152);stroke-width:2" clip-path="url(#clip17)" />
<clipPath id="clip18"><path d="M312,14 L764,14 L764,219 L312,219 L312,14 Z" /></clipPath>
<path d="M387,115.71875 L387,199.5703125 C387,201.7773438 388.7929688,203.5703125 391,203.5703125 L393,203.5703125" style="fill:none;stroke:rgb(1,124,152);stroke-width:2" clip-path="url(#clip18)" />
<clipPath id="clip19"><path d="M312,14 L764,14 L764,219 L312,219 L312,14 Z" /></clipPath>
<path d="M373,115.6484375 L387,115.71875" style="fill:none;stroke:rgb(1,124,152);stroke-width:2" clip-path="url(#clip19)" />
<text x="323" y="117" style="font:10px Dialog">元字符</text>
<clipPath id="clip20"><path d="M392,14 L604,14 L604,44 L392,44 L392,14 Z" /></clipPath>
<path d="M432,28.6328125 C432,28.7851563 433.7929688,28.9101563 436,28.9101563 L438,28.9101563" style="fill:none;stroke:rgb(1,124,152);stroke-width:2" clip-path="url(#clip20)" />
<clipPath id="clip21"><path d="M392,14 L604,14 L604,44 L392,44 L392,14 Z" /></clipPath>
<path d="M418,28.5625 L432,28.6328125" style="fill:none;stroke:rgb(1,124,152);stroke-width:2" clip-path="url(#clip21)" />
<text x="403" y="30" style="font:10px Dialog">.</text>
<text x="448" y="30" style="font:10px Dialog">除换行符以外的任意字符</text>
<clipPath id="clip22"><path d="M392,43 L629,43 L629,73 L392,73 L392,43 Z" /></clipPath>
<path d="M444,57.6601563 C444,57.8164063 445.7929688,57.9453125 448,57.9453125 L450,57.9453125" style="fill:none;stroke:rgb(1,124,152);stroke-width:2" clip-path="url(#clip22)" />
<clipPath id="clip23"><path d="M392,43 L629,43 L629,73 L392,73 L392,43 Z" /></clipPath>
<path d="M430,57.59375 L444,57.6601563" style="fill:none;stroke:rgb(1,124,152);stroke-width:2" clip-path="url(#clip23)" />
<text x="403" y="59" style="font:10px Dialog">\w</text>
<text x="460" y="59" style="font:10px Dialog">字母、数字、汉字、下划线</text>
<clipPath id="clip24"><path d="M392,72 L764,72 L764,103 L392,103 L392,72 Z" /></clipPath>
<path d="M439,87.6484375 C439,87.453125 440.7929688,87.296875 443,87.296875 L445,87.296875" style="fill:none;stroke:rgb(1,124,152);stroke-width:2" clip-path="url(#clip24)" />
<clipPath id="clip25"><path d="M392,72 L764,72 L764,103 L392,103 L392,72 Z" /></clipPath>
<path d="M425,87.578125 L439,87.6484375" style="fill:none;stroke:rgb(1,124,152);stroke-width:2" clip-path="url(#clip25)" />
<text x="403" y="89" style="font:10px Dialog">\s</text>
<text x="455" y="88" style="font:10px Dialog">任意空白符，包括空格、Tab、换行符、全角空格等</text>
<clipPath id="clip26"><path d="M392,102 L496,102 L496,132 L392,132 L392,102 Z" /></clipPath>
<path d="M441,116.65625 C441,116.6328125 442.7929688,116.6171875 445,116.6171875 L447,116.6171875" style="fill:none;stroke:rgb(1,124,152);stroke-width:2" clip-path="url(#clip26)" />
<clipPath id="clip27"><path d="M392,102 L496,102 L496,132 L392,132 L392,102 Z" /></clipPath>
<path d="M427,116.5859375 L441,116.65625" style="fill:none;stroke:rgb(1,124,152);stroke-width:2" clip-path="url(#clip27)" />
<text x="403" y="118" style="font:10px Dialog">\d</text>
<text x="457" y="118" style="font:10px Dialog">数字</text>
<clipPath id="clip28"><path d="M392,131 L574,131 L574,161 L392,161 L392,131 Z" /></clipPath>
<path d="M441,145.65625 C441,145.7421875 442.7929688,145.8125 445,145.8125 L447,145.8125" style="fill:none;stroke:rgb(1,124,152);stroke-width:2" clip-path="url(#clip28)" />
<clipPath id="clip29"><path d="M392,131 L574,131 L574,161 L392,161 L392,131 Z" /></clipPath>
<path d="M427,145.5859375 L441,145.65625" style="fill:none;stroke:rgb(1,124,152);stroke-width:2" clip-path="url(#clip29)" />
<text x="403" y="147" style="font:10px Dialog">\b</text>
<text x="457" y="147" style="font:10px Dialog">单词的开头或结尾</text>
<clipPath id="clip30"><path d="M392,160 L542,160 L542,190 L392,190 L392,160 Z" /></clipPath>
<path d="M435,174.640625 C435,174.6992188 436.7929688,174.75 439,174.75 L441,174.75" style="fill:none;stroke:rgb(1,124,152);stroke-width:2" clip-path="url(#clip30)" />
<clipPath id="clip31"><path d="M392,160 L542,160 L542,190 L392,190 L392,160 Z" /></clipPath>
<path d="M421,174.5703125 L435,174.640625" style="fill:none;stroke:rgb(1,124,152);stroke-width:2" clip-path="url(#clip31)" />
<text x="403" y="176" style="font:10px Dialog">^</text>
<text x="451" y="176" style="font:10px Dialog">字符串的开始</text>
<clipPath id="clip32"><path d="M392,189 L542,189 L542,219 L392,219 L392,189 Z" /></clipPath>
<path d="M435,203.640625 C435,203.6992188 436.7929688,203.75 439,203.75 L441,203.75" style="fill:none;stroke:rgb(1,124,152);stroke-width:2" clip-path="url(#clip32)" />
<clipPath id="clip33"><path d="M392,189 L542,189 L542,219 L392,219 L392,189 Z" /></clipPath>
<path d="M421,203.5703125 L435,203.640625" style="fill:none;stroke:rgb(1,124,152);stroke-width:2" clip-path="url(#clip33)" />
<text x="403" y="205" style="font:10px Dialog">$</text>
<text x="451" y="205" style="font:10px Dialog">字符串的结尾</text>
<clipPath id="clip34"><path d="M312,218 L743,218 L743,306 L312,306 L312,218 Z" /></clipPath>
<path d="M400,262.75 L400,237.2734375 C400,235.0664063 401.7929688,233.2734375 404,233.2734375 L406,233.2734375" style="fill:none;stroke:rgb(1,124,152);stroke-width:2" clip-path="url(#clip34)" />
<clipPath id="clip35"><path d="M312,218 L743,218 L743,306 L312,306 L312,218 Z" /></clipPath>
<path d="M400,262.75 C400,262.4179688 401.7929688,262.1445313 404,262.1445313 L406,262.1445313" style="fill:none;stroke:rgb(1,124,152);stroke-width:2" clip-path="url(#clip35)" />
<clipPath id="clip36"><path d="M312,218 L743,218 L743,306 L312,306 L312,218 Z" /></clipPath>
<path d="M400,262.75 L400,287.3398438 C400,289.5507813 401.7929688,291.3398438 404,291.3398438 L406,291.3398438" style="fill:none;stroke:rgb(1,124,152);stroke-width:2" clip-path="url(#clip36)" />
<clipPath id="clip37"><path d="M312,218 L743,218 L743,306 L312,306 L312,218 Z" /></clipPath>
<path d="M386,262.6796875 L400,262.75" style="fill:none;stroke:rgb(1,124,152);stroke-width:2" clip-path="url(#clip37)" />
<text x="323" y="264" style="font:10px Dialog">字符集合</text>
<text x="416" y="234" style="font:10px Dialog">使用 [] 标志的字符集合，匹配数组中任意一个元素</text>
<text x="416" y="263" style="font:10px Dialog">例：[abcd] 匹配是 abcd 中任意一个字符</text>
<text x="416" y="292" style="font:10px Dialog">注意：使用连字符 - 可以表示范围，如 [0-9]、[a-zA-Z]</text>
<clipPath id="clip38"><path d="M312,305 L656,305 L656,480 L312,480 L312,305 Z" /></clipPath>
<path d="M400,391.75 L400,323.59375 C400,321.3867188 401.7929688,319.59375 404,319.59375 L406,319.59375" style="fill:none;stroke:rgb(1,124,152);stroke-width:2" clip-path="url(#clip38)" />
<clipPath id="clip39"><path d="M312,305 L656,305 L656,480 L312,480 L312,305 Z" /></clipPath>
<path d="M400,391.75 L400,352.5859375 C400,350.3789063 401.7929688,348.5859375 404,348.5859375 L406,348.5859375" style="fill:none;stroke:rgb(1,124,152);stroke-width:2" clip-path="url(#clip39)" />
<clipPath id="clip40"><path d="M312,305 L656,305 L656,480 L312,480 L312,305 Z" /></clipPath>
<path d="M400,391.75 L400,381.5898438 C400,379.3789063 401.7929688,377.5898438 404,377.5898438 L406,377.5898438" style="fill:none;stroke:rgb(1,124,152);stroke-width:2" clip-path="url(#clip40)" />
<clipPath id="clip41"><path d="M312,305 L656,305 L656,480 L312,480 L312,305 Z" /></clipPath>
<path d="M400,391.75 L400,402.5898438 C400,404.796875 401.7929688,406.5898438 404,406.5898438 L406,406.5898438" style="fill:none;stroke:rgb(1,124,152);stroke-width:2" clip-path="url(#clip41)" />
<clipPath id="clip42"><path d="M312,305 L656,305 L656,480 L312,480 L312,305 Z" /></clipPath>
<path d="M400,391.75 L400,431.6132813 C400,433.8203125 401.7929688,435.6132813 404,435.6132813 L406,435.6132813" style="fill:none;stroke:rgb(1,124,152);stroke-width:2" clip-path="url(#clip42)" />
<clipPath id="clip43"><path d="M312,305 L656,305 L656,480 L312,480 L312,305 Z" /></clipPath>
<path d="M400,391.75 L400,460.6445313 C400,462.8515625 401.7929688,464.6445313 404,464.6445313 L406,464.6445313" style="fill:none;stroke:rgb(1,124,152);stroke-width:2" clip-path="url(#clip43)" />
<clipPath id="clip44"><path d="M312,305 L656,305 L656,480 L312,480 L312,305 Z" /></clipPath>
<path d="M386,391.6796875 L400,391.75" style="fill:none;stroke:rgb(1,124,152);stroke-width:2" clip-path="url(#clip44)" />
<text x="323" y="393" style="font:10px Dialog">反义字符</text>
<clipPath id="clip45"><path d="M405,305 L656,305 L656,335 L405,335 L405,305 Z" /></clipPath>
<path d="M458,319.6640625 C458,319.8359375 459.7929688,319.9765625 462,319.9765625 L464,319.9765625" style="fill:none;stroke:rgb(1,124,152);stroke-width:2" clip-path="url(#clip45)" />
<clipPath id="clip46"><path d="M405,305 L656,305 L656,335 L405,335 L405,305 Z" /></clipPath>
<path d="M444,319.59375 L458,319.6640625" style="fill:none;stroke:rgb(1,124,152);stroke-width:2" clip-path="url(#clip46)" />
<text x="416" y="321" style="font:10px Dialog">\W</text>
<text x="474" y="321" style="font:10px Dialog">非字母、数字、汉字、下划线</text>
<clipPath id="clip47"><path d="M405,334 L548,334 L548,364 L405,364 L405,334 Z" /></clipPath>
<path d="M454,348.65625 C454,348.6875 455.7929688,348.7148438 458,348.7148438 L460,348.7148438" style="fill:none;stroke:rgb(1,124,152);stroke-width:2" clip-path="url(#clip47)" />
<clipPath id="clip48"><path d="M405,334 L548,334 L548,364 L405,364 L405,334 Z" /></clipPath>
<path d="M440,348.5859375 L454,348.65625" style="fill:none;stroke:rgb(1,124,152);stroke-width:2" clip-path="url(#clip48)" />
<text x="416" y="350" style="font:10px Dialog">\S</text>
<text x="470" y="350" style="font:10px Dialog">非空白字符</text>
<clipPath id="clip49"><path d="M405,363 L523,363 L523,393 L405,393 L405,363 Z" /></clipPath>
<path d="M455,377.65625 C455,377.6523438 456.7929688,377.6484375 459,377.6484375 L461,377.6484375" style="fill:none;stroke:rgb(1,124,152);stroke-width:2" clip-path="url(#clip49)" />
<clipPath id="clip50"><path d="M405,363 L523,363 L523,393 L405,393 L405,363 Z" /></clipPath>
<path d="M441,377.5859375 L455,377.65625" style="fill:none;stroke:rgb(1,124,152);stroke-width:2" clip-path="url(#clip50)" />
<text x="416" y="379" style="font:10px Dialog">\D</text>
<text x="471" y="379" style="font:10px Dialog">非数字</text>
<clipPath id="clip51"><path d="M405,392 L588,392 L588,422 L405,422 L405,392 Z" /></clipPath>
<path d="M455,406.65625 C455,406.7421875 456.7929688,406.8125 459,406.8125 L461,406.8125" style="fill:none;stroke:rgb(1,124,152);stroke-width:2" clip-path="url(#clip51)" />
<clipPath id="clip52"><path d="M405,392 L588,392 L588,422 L405,422 L405,392 Z" /></clipPath>
<path d="M441,406.5859375 L455,406.65625" style="fill:none;stroke:rgb(1,124,152);stroke-width:2" clip-path="url(#clip52)" />
<text x="416" y="408" style="font:10px Dialog">\B</text>
<text x="471" y="408" style="font:10px Dialog">非单词开头或结尾</text>
<clipPath id="clip53"><path d="M405,421 L598,421 L598,451 L405,451 L405,421 Z" /></clipPath>
<path d="M465,435.6796875 C465,435.7539063 466.7929688,435.8125 469,435.8125 L471,435.8125" style="fill:none;stroke:rgb(1,124,152);stroke-width:2" clip-path="url(#clip53)" />
<clipPath id="clip54"><path d="M405,421 L598,421 L598,451 L405,451 L405,421 Z" /></clipPath>
<path d="M451,435.6132813 L465,435.6796875" style="fill:none;stroke:rgb(1,124,152);stroke-width:2" clip-path="url(#clip54)" />
<text x="416" y="437" style="font:10px Dialog">[^x]</text>
<text x="481" y="437" style="font:10px Dialog">非 x 外的任意字符</text>
<clipPath id="clip55"><path d="M405,450 L624,450 L624,480 L405,480 L405,450 Z" /></clipPath>
<path d="M478,464.7148438 C478,464.7851563 479.7929688,464.84375 482,464.84375 L484,464.84375" style="fill:none;stroke:rgb(1,124,152);stroke-width:2" clip-path="url(#clip55)" />
<clipPath id="clip56"><path d="M405,450 L624,450 L624,480 L405,480 L405,450 Z" /></clipPath>
<path d="M464,464.6445313 L478,464.7148438" style="fill:none;stroke:rgb(1,124,152);stroke-width:2" clip-path="url(#clip56)" />
<text x="416" y="466" style="font:10px Dialog">[^xyz]</text>
<text x="494" y="466" style="font:10px Dialog">非 xyz 外的任意字符</text>
<clipPath id="clip57"><path d="M312,479 L666,479 L666,654 L312,654 L312,479 Z" /></clipPath>
<path d="M387,565.71875 L387,497.5664063 C387,495.359375 388.7929688,493.5664063 391,493.5664063 L393,493.5664063" style="fill:none;stroke:rgb(1,124,152);stroke-width:2" clip-path="url(#clip57)" />
<clipPath id="clip58"><path d="M312,479 L666,479 L666,654 L312,654 L312,479 Z" /></clipPath>
<path d="M387,565.71875 L387,526.5703125 C387,524.3632813 388.7929688,522.5703125 391,522.5703125 L393,522.5703125" style="fill:none;stroke:rgb(1,124,152);stroke-width:2" clip-path="url(#clip58)" />
<clipPath id="clip59"><path d="M312,479 L666,479 L666,654 L312,654 L312,479 Z" /></clipPath>
<path d="M387,565.71875 L387,555.5664063 C387,553.359375 388.7929688,551.5664063 391,551.5664063 L393,551.5664063" style="fill:none;stroke:rgb(1,124,152);stroke-width:2" clip-path="url(#clip59)" />
<clipPath id="clip60"><path d="M312,479 L666,479 L666,654 L312,654 L312,479 Z" /></clipPath>
<path d="M387,565.71875 L387,576.5976563 C387,578.8046875 388.7929688,580.5976563 391,580.5976563 L393,580.5976563" style="fill:none;stroke:rgb(1,124,152);stroke-width:2" clip-path="url(#clip60)" />
<clipPath id="clip61"><path d="M312,479 L666,479 L666,654 L312,654 L312,479 Z" /></clipPath>
<path d="M387,565.71875 L387,605.609375 C387,607.8164063 388.7929688,609.609375 391,609.609375 L393,609.609375" style="fill:none;stroke:rgb(1,124,152);stroke-width:2" clip-path="url(#clip61)" />
<clipPath id="clip62"><path d="M312,479 L666,479 L666,654 L312,654 L312,479 Z" /></clipPath>
<path d="M387,565.71875 L387,634.6367188 C387,636.8476563 388.7929688,638.6367188 391,638.6367188 L393,638.6367188" style="fill:none;stroke:rgb(1,124,152);stroke-width:2" clip-path="url(#clip62)" />
<clipPath id="clip63"><path d="M312,479 L666,479 L666,654 L312,654 L312,479 Z" /></clipPath>
<path d="M373,565.6484375 L387,565.71875" style="fill:none;stroke:rgb(1,124,152);stroke-width:2" clip-path="url(#clip63)" />
<text x="323" y="567" style="font:10px Dialog">限定符</text>
<clipPath id="clip64"><path d="M392,479 L502,479 L502,509 L392,509 L392,479 Z" /></clipPath>
<path d="M434,493.6367188 C434,493.6445313 435.7929688,493.6484375 438,493.6484375 L440,493.6484375" style="fill:none;stroke:rgb(1,124,152);stroke-width:2" clip-path="url(#clip64)" />
<clipPath id="clip65"><path d="M392,479 L502,479 L502,509 L392,509 L392,479 Z" /></clipPath>
<path d="M420,493.5664063 L434,493.6367188" style="fill:none;stroke:rgb(1,124,152);stroke-width:2" clip-path="url(#clip65)" />
<text x="403" y="495" style="font:10px Dialog">*</text>
<text x="450" y="495" style="font:10px Dialog">任意次</text>
<clipPath id="clip66"><path d="M392,508 L516,508 L516,538 L392,538 L392,508 Z" /></clipPath>
<path d="M435,522.640625 C435,522.6640625 436.7929688,522.6835938 439,522.6835938 L441,522.6835938" style="fill:none;stroke:rgb(1,124,152);stroke-width:2" clip-path="url(#clip66)" />
<clipPath id="clip67"><path d="M392,508 L516,508 L516,538 L392,538 L392,508 Z" /></clipPath>
<path d="M421,522.5703125 L435,522.640625" style="fill:none;stroke:rgb(1,124,152);stroke-width:2" clip-path="url(#clip67)" />
<text x="403" y="524" style="font:10px Dialog">+</text>
<text x="451" y="524" style="font:10px Dialog">最少一次</text>
<clipPath id="clip68"><path d="M392,537 L515,537 L515,567 L392,567 L392,537 Z" /></clipPath>
<path d="M434,551.6367188 C434,551.6640625 435.7929688,551.6835938 438,551.6835938 L440,551.6835938" style="fill:none;stroke:rgb(1,124,152);stroke-width:2" clip-path="url(#clip68)" />
<clipPath id="clip69"><path d="M392,537 L515,537 L515,567 L392,567 L392,537 Z" /></clipPath>
<path d="M420,551.5664063 L434,551.6367188" style="fill:none;stroke:rgb(1,124,152);stroke-width:2" clip-path="url(#clip69)" />
<text x="403" y="553" style="font:10px Dialog">?</text>
<text x="450" y="553" style="font:10px Dialog">最多一次</text>
<clipPath id="clip70"><path d="M392,566 L528,566 L528,596 L392,596 L392,566 Z" /></clipPath>
<path d="M446,580.6679688 C446,580.6757813 447.7929688,580.6835938 450,580.6835938 L452,580.6835938" style="fill:none;stroke:rgb(1,124,152);stroke-width:2" clip-path="url(#clip70)" />
<clipPath id="clip71"><path d="M392,566 L528,566 L528,596 L392,596 L392,566 Z" /></clipPath>
<path d="M432,580.5976563 L446,580.6679688" style="fill:none;stroke:rgb(1,124,152);stroke-width:2" clip-path="url(#clip71)" />
<text x="403" y="582" style="font:10px Dialog">{n}</text>
<text x="462" y="582" style="font:10px Dialog">重复 n 次</text>
<clipPath id="clip72"><path d="M392,595 L532,595 L532,625 L392,625 L392,595 Z" /></clipPath>
<path d="M450,609.6757813 C450,609.6796875 451.7929688,609.6835938 454,609.6835938 L456,609.6835938" style="fill:none;stroke:rgb(1,124,152);stroke-width:2" clip-path="url(#clip72)" />
<clipPath id="clip73"><path d="M392,595 L532,595 L532,625 L392,625 L392,595 Z" /></clipPath>
<path d="M436,609.6054688 L450,609.6757813" style="fill:none;stroke:rgb(1,124,152);stroke-width:2" clip-path="url(#clip73)" />
<text x="403" y="611" style="font:10px Dialog">{n,}</text>
<text x="466" y="611" style="font:10px Dialog">最少 n 次</text>
<clipPath id="clip74"><path d="M392,624 L666,624 L666,654 L392,654 L392,624 Z" /></clipPath>
<path d="M462,638.7070313 C462,638.8632813 463.7929688,638.9882813 466,638.9882813 L468,638.9882813" style="fill:none;stroke:rgb(1,124,152);stroke-width:2" clip-path="url(#clip74)" />
<clipPath id="clip75"><path d="M392,624 L666,624 L666,654 L392,654 L392,624 Z" /></clipPath>
<path d="M448,638.6367188 L462,638.7070313" style="fill:none;stroke:rgb(1,124,152);stroke-width:2" clip-path="url(#clip75)" />
<text x="403" y="640" style="font:10px Dialog">{n.m}</text>
<text x="478" y="640" style="font:10px Dialog">重复次数在 n 和 m 之间，包涵</text>
<clipPath id="clip76"><path d="M312,653 L835,653 L835,741 L312,741 L312,653 Z" /></clipPath>
<path d="M413,696.7851563 L413,672.171875 C413,669.9609375 414.7929688,668.171875 417,668.171875 L419,668.171875" style="fill:none;stroke:rgb(1,124,152);stroke-width:2" clip-path="url(#clip76)" />
<clipPath id="clip77"><path d="M312,653 L835,653 L835,741 L312,741 L312,653 Z" /></clipPath>
<path d="M413,696.7851563 C413,697.1992188 414.7929688,697.5351563 417,697.5351563 L419,697.5351563" style="fill:none;stroke:rgb(1,124,152);stroke-width:2" clip-path="url(#clip77)" />
<clipPath id="clip78"><path d="M312,653 L835,653 L835,741 L312,741 L312,653 Z" /></clipPath>
<path d="M413,696.7851563 L413,721.9882813 C413,724.1992188 414.7929688,725.9882813 417,725.9882813 L419,725.9882813" style="fill:none;stroke:rgb(1,124,152);stroke-width:2" clip-path="url(#clip78)" />
<clipPath id="clip79"><path d="M312,653 L835,653 L835,741 L312,741 L312,653 Z" /></clipPath>
<path d="M399,696.7148438 L413,696.7851563" style="fill:none;stroke:rgb(1,124,152);stroke-width:2" clip-path="url(#clip79)" />
<text x="323" y="698" style="font:10px Dialog">懒惰限定符</text>
<text x="429" y="669" style="font:10px Dialog">默认是贪婪匹配，尽可能匹配更长的字符串</text>
<text x="429" y="698" style="font:10px Dialog">在限定符之后加个 ？就变成了懒惰限定符。会尽可能匹配短的字符串</text>
<text x="429" y="727" style="font:10px Dialog">*?  +?   ??    {n}?   {n,}?   {n,m}?</text>
<clipPath id="clip80"><path d="M312,740 L845,740 L845,886 L312,886 L312,740 Z" /></clipPath>
<path d="M400,790.75 L400,759.5976563 C400,757.390625 401.7929688,755.5976563 404,755.5976563 L406,755.5976563" style="fill:none;stroke:rgb(1,124,152);stroke-width:2" clip-path="url(#clip80)" />
<clipPath id="clip81"><path d="M312,740 L845,740 L845,886 L312,886 L312,740 Z" /></clipPath>
<path d="M400,790.75 L400,822.6484375 C400,824.859375 401.7929688,826.6484375 404,826.6484375 L406,826.6484375" style="fill:none;stroke:rgb(1,124,152);stroke-width:2" clip-path="url(#clip81)" />
<clipPath id="clip82"><path d="M312,740 L845,740 L845,886 L312,886 L312,740 Z" /></clipPath>
<path d="M386,790.6796875 L400,790.75" style="fill:none;stroke:rgb(1,124,152);stroke-width:2" clip-path="url(#clip82)" />
<text x="323" y="792" style="font:10px Dialog">转义字符</text>
<text x="416" y="756" style="font:10px Dialog">使用反斜杠转义特殊字符的含义，适用于正则表达式中有意义的单个字符</text>
<clipPath id="clip83"><path d="M405,769 L521,769 L521,886 L405,886 L405,769 Z" /></clipPath>
<path d="M480,826.71875 L480,787.578125 C480,785.3710938 481.7929688,783.578125 484,783.578125 L486,783.578125" style="fill:none;stroke:rgb(1,124,152);stroke-width:2" clip-path="url(#clip83)" />
<clipPath id="clip84"><path d="M405,769 L521,769 L521,886 L405,886 L405,769 Z" /></clipPath>
<path d="M480,826.71875 L480,816.5742188 C480,814.3671875 481.7929688,812.5742188 484,812.5742188 L486,812.5742188" style="fill:none;stroke:rgb(1,124,152);stroke-width:2" clip-path="url(#clip84)" />
<clipPath id="clip85"><path d="M405,769 L521,769 L521,886 L405,886 L405,769 Z" /></clipPath>
<path d="M480,826.71875 L480,837.5820313 C480,839.7890625 481.7929688,841.5820313 484,841.5820313 L486,841.5820313" style="fill:none;stroke:rgb(1,124,152);stroke-width:2" clip-path="url(#clip85)" />
<clipPath id="clip86"><path d="M405,769 L521,769 L521,886 L405,886 L405,769 Z" /></clipPath>
<path d="M480,826.71875 L480,866.5820313 C480,868.7890625 481.7929688,870.5820313 484,870.5820313 L486,870.5820313" style="fill:none;stroke:rgb(1,124,152);stroke-width:2" clip-path="url(#clip86)" />
<clipPath id="clip87"><path d="M405,769 L521,769 L521,886 L405,886 L405,769 Z" /></clipPath>
<path d="M466,826.6484375 L480,826.71875" style="fill:none;stroke:rgb(1,124,152);stroke-width:2" clip-path="url(#clip87)" />
<text x="416" y="828" style="font:10px Dialog">适用于</text>
<text x="496" y="785" style="font:10px Dialog">\\</text>
<text x="496" y="814" style="font:10px Dialog">\.</text>
<text x="496" y="843" style="font:10px Dialog">\^</text>
<text x="496" y="872" style="font:10px Dialog">\$</text>
<clipPath id="clip88"><path d="M231,894 L1125,894 L1125,1513 L231,1513 L231,894 Z" /></clipPath>
<path d="M307,1083.7226563 L307,923.6171875 L313,923.6171875" style="fill:none;stroke:rgb(0,178,161);stroke-width:2" clip-path="url(#clip88)" />
<clipPath id="clip89"><path d="M231,894 L1125,894 L1125,1513 L231,1513 L231,894 Z" /></clipPath>
<path d="M307,1083.7226563 L307,1245.6171875 L313,1245.6171875" style="fill:none;stroke:rgb(0,178,161);stroke-width:2" clip-path="url(#clip89)" />
<clipPath id="clip90"><path d="M231,894 L1125,894 L1125,1513 L231,1513 L231,894 Z" /></clipPath>
<path d="M293,1083.6523438 L307,1083.7226563" style="fill:none;stroke:rgb(0,178,161);stroke-width:2" clip-path="url(#clip90)" />
<text x="245" y="1084" style="font:13px Dialog">操作</text>
<clipPath id="clip91"><path d="M312,894 L774,894 L774,953 L312,953 L312,894 Z" /></clipPath>
<path d="M374,923.6875 L374,912.8398438 C374,910.6328125 375.7929688,908.8398438 378,908.8398438 L380,908.8398438" style="fill:none;stroke:rgb(0,178,161);stroke-width:2" clip-path="url(#clip91)" />
<clipPath id="clip92"><path d="M312,894 L774,894 L774,953 L312,953 L312,894 Z" /></clipPath>
<path d="M374,923.6875 L374,934.4804688 C374,936.6875 375.7929688,938.4804688 378,938.4804688 L380,938.4804688" style="fill:none;stroke:rgb(0,178,161);stroke-width:2" clip-path="url(#clip92)" />
<clipPath id="clip93"><path d="M312,894 L774,894 L774,953 L312,953 L312,894 Z" /></clipPath>
<path d="M360,923.6171875 L374,923.6875" style="fill:none;stroke:rgb(0,178,161);stroke-width:2" clip-path="url(#clip93)" />
<text x="323" y="925" style="font:10px Dialog">分支</text>
<text x="390" y="910" style="font:10px Dialog">使用 | 定义多个规则</text>
<text x="390" y="939" style="font:10px Dialog">注意：| 的匹配类似短路或，从左向右匹配，若匹配成功就会结束</text>
<clipPath id="clip94"><path d="M312,952 L1125,952 L1125,1513 L312,1513 L312,952 Z" /></clipPath>
<path d="M374,1245.6875 L374,999.6835938 C374,997.4765625 375.7929688,995.6835938 378,995.6835938 L380,995.6835938" style="fill:none;stroke:rgb(0,178,161);stroke-width:2" clip-path="url(#clip94)" />
<clipPath id="clip95"><path d="M312,952 L1125,952 L1125,1513 L312,1513 L312,952 Z" /></clipPath>
<path d="M374,1245.6875 L374,1071.6835938 C374,1069.4765625 375.7929688,1067.6835938 378,1067.6835938 L380,1067.6835938" style="fill:none;stroke:rgb(0,178,161);stroke-width:2" clip-path="url(#clip95)" />
<clipPath id="clip96"><path d="M312,952 L1125,952 L1125,1513 L312,1513 L312,952 Z" /></clipPath>
<path d="M374,1245.6875 L374,1172.6835938 C374,1170.4765625 375.7929688,1168.6835938 378,1168.6835938 L380,1168.6835938" style="fill:none;stroke:rgb(0,178,161);stroke-width:2" clip-path="url(#clip96)" />
<clipPath id="clip97"><path d="M312,952 L1125,952 L1125,1513 L312,1513 L312,952 Z" /></clipPath>
<path d="M374,1245.6875 L374,1338.6835938 C374,1340.890625 375.7929688,1342.6835938 378,1342.6835938 L380,1342.6835938" style="fill:none;stroke:rgb(0,178,161);stroke-width:2" clip-path="url(#clip97)" />
<clipPath id="clip98"><path d="M312,952 L1125,952 L1125,1513 L312,1513 L312,952 Z" /></clipPath>
<path d="M374,1245.6875 L374,1492.625 C374,1494.8320313 375.7929688,1496.625 378,1496.625 L380,1496.625" style="fill:none;stroke:rgb(0,178,161);stroke-width:2" clip-path="url(#clip98)" />
<clipPath id="clip99"><path d="M312,952 L1125,952 L1125,1513 L312,1513 L312,952 Z" /></clipPath>
<path d="M360,1245.6171875 L374,1245.6875" style="fill:none;stroke:rgb(0,178,161);stroke-width:2" clip-path="url(#clip99)" />
<text x="323" y="1246" style="font:10px Dialog">分组</text>
<clipPath id="clip100"><path d="M379,952 L1016,952 L1016,1040 L379,1040 L379,952 Z" /></clipPath>
<path d="M467,995.75 L467,970.9179688 C467,968.7109375 468.7929688,966.9179688 471,966.9179688 L473,966.9179688" style="fill:none;stroke:rgb(0,178,161);stroke-width:2" clip-path="url(#clip100)" />
<clipPath id="clip101"><path d="M379,952 L1016,952 L1016,1040 L379,1040 L379,952 Z" /></clipPath>
<path d="M467,995.75 C467,996.0390625 468.7929688,996.2695313 471,996.2695313 L473,996.2695313" style="fill:none;stroke:rgb(0,178,161);stroke-width:2" clip-path="url(#clip101)" />
<clipPath id="clip102"><path d="M379,952 L1016,952 L1016,1040 L379,1040 L379,952 Z" /></clipPath>
<path d="M467,995.75 L467,1021.859375 C467,1024.0664063 468.7929688,1025.859375 471,1025.859375 L473,1025.859375" style="fill:none;stroke:rgb(0,178,161);stroke-width:2" clip-path="url(#clip102)" />
<clipPath id="clip103"><path d="M379,952 L1016,952 L1016,1040 L379,1040 L379,952 Z" /></clipPath>
<path d="M453,995.6796875 L467,995.75" style="fill:none;stroke:rgb(0,178,161);stroke-width:2" clip-path="url(#clip103)" />
<text x="390" y="997" style="font:10px Dialog">普通分组</text>
<text x="483" y="968" style="font:10px Dialog">使用圆括号 () 定义一个组</text>
<text x="483" y="997" style="font:10px Dialog">组与元字符类似使用，在其后可以使用限定符限定</text>
<text x="483" y="1026" style="font:10px Dialog">每个组都有组号，除非特别声明。组号 0 代表整个表达式，所以普通分组的组号从 1 开始。</text>
<clipPath id="clip104"><path d="M379,1039 L702,1039 L702,1098 L379,1098 L379,1039 Z" /></clipPath>
<path d="M467,1067.75 L467,1058.0703125 C467,1055.8632813 468.7929688,1054.0703125 471,1054.0703125 L473,1054.0703125" style="fill:none;stroke:rgb(0,178,161);stroke-width:2" clip-path="url(#clip104)" />
<clipPath id="clip105"><path d="M379,1039 L702,1039 L702,1098 L379,1098 L379,1039 Z" /></clipPath>
<path d="M467,1067.75 L467,1078.8398438 C467,1081.046875 468.7929688,1082.8398438 471,1082.8398438 L473,1082.8398438" style="fill:none;stroke:rgb(0,178,161);stroke-width:2" clip-path="url(#clip105)" />
<clipPath id="clip106"><path d="M379,1039 L702,1039 L702,1098 L379,1098 L379,1039 Z" /></clipPath>
<path d="M453,1067.6796875 L467,1067.75" style="fill:none;stroke:rgb(0,178,161);stroke-width:2" clip-path="url(#clip106)" />
<text x="390" y="1068" style="font:10px Dialog">后向引用</text>
<text x="483" y="1054" style="font:10px Dialog">使用 \ 加组号，引用之前定义的分组</text>
<text x="483" y="1083" style="font:10px Dialog">例：\b(\w+)\s+\1\b</text>
<clipPath id="clip107"><path d="M379,1097 L1125,1097 L1125,1214 L379,1214 L379,1097 Z" /></clipPath>
<path d="M467,1168.75 L467,1145.0546875 C467,1142.8476563 468.7929688,1141.0546875 471,1141.0546875 L473,1141.0546875" style="fill:none;stroke:rgb(0,178,161);stroke-width:2" clip-path="url(#clip107)" />
<clipPath id="clip108"><path d="M379,1097 L1125,1097 L1125,1214 L379,1214 L379,1097 Z" /></clipPath>
<path d="M467,1168.75 L467,1194.6640625 C467,1196.8710938 468.7929688,1198.6640625 471,1198.6640625 L473,1198.6640625" style="fill:none;stroke:rgb(0,178,161);stroke-width:2" clip-path="url(#clip108)" />
<clipPath id="clip109"><path d="M379,1097 L1125,1097 L1125,1214 L379,1214 L379,1097 Z" /></clipPath>
<path d="M453,1168.6796875 L467,1168.75" style="fill:none;stroke:rgb(0,178,161);stroke-width:2" clip-path="url(#clip109)" />
<text x="390" y="1169" style="font:10px Dialog">捕获分组</text>
<clipPath id="clip110"><path d="M472,1097 L1125,1097 L1125,1185 L472,1185 L472,1097 Z" /></clipPath>
<path d="M708,1141.1210938 L708,1116.0390625 C708,1113.8320313 709.7929688,1112.0390625 712,1112.0390625 L714,1112.0390625" style="fill:none;stroke:rgb(0,178,161);stroke-width:2" clip-path="url(#clip110)" />
<clipPath id="clip111"><path d="M472,1097 L1125,1097 L1125,1185 L472,1185 L472,1097 Z" /></clipPath>
<path d="M708,1141.1210938 C708,1141.21875 709.7929688,1141.3007813 712,1141.3007813 L714,1141.3007813" style="fill:none;stroke:rgb(0,178,161);stroke-width:2" clip-path="url(#clip111)" />
<clipPath id="clip112"><path d="M472,1097 L1125,1097 L1125,1185 L472,1185 L472,1097 Z" /></clipPath>
<path d="M708,1141.1210938 L708,1166.5273438 C708,1168.734375 709.7929688,1170.5273438 712,1170.5273438 L714,1170.5273438" style="fill:none;stroke:rgb(0,178,161);stroke-width:2" clip-path="url(#clip112)" />
<clipPath id="clip113"><path d="M472,1097 L1125,1097 L1125,1185 L472,1185 L472,1097 Z" /></clipPath>
<path d="M694,1141.0507813 L708,1141.1210938" style="fill:none;stroke:rgb(0,178,161);stroke-width:2" clip-path="url(#clip113)" />
<text x="483" y="1141" style="font:10px Dialog">(?&lt;name&gt;exp) 或者 (?'name'exp)</text>
<text x="724" y="1112" style="font:10px Dialog">匹配分组，并将分组命名为 name</text>
<text x="724" y="1141" style="font:10px Dialog">可以使用 \k&lt;name&gt; 或者 \k'ooo' 来引用命名的分组</text>
<text x="724" y="1170" style="font:10px Dialog">定义名称之后，就不能使用 \ 加组号的方式引用了，或许与引擎有关</text>
<clipPath id="clip114"><path d="M472,1184 L777,1184 L777,1214 L472,1214 L472,1184 Z" /></clipPath>
<path d="M553,1198.734375 C553,1198.9023438 554.7929688,1199.0390625 557,1199.0390625 L559,1199.0390625" style="fill:none;stroke:rgb(0,178,161);stroke-width:2" clip-path="url(#clip114)" />
<clipPath id="clip115"><path d="M472,1184 L777,1184 L777,1214 L472,1214 L472,1184 Z" /></clipPath>
<path d="M539,1198.6640625 L553,1198.734375" style="fill:none;stroke:rgb(0,178,161);stroke-width:2" clip-path="url(#clip115)" />
<text x="483" y="1199" style="font:10px Dialog">(?: exp)</text>
<text x="569" y="1199" style="font:10px Dialog">声明该组不分配组号，会匹配正则</text>
<clipPath id="clip116"><path d="M379,1213 L979,1213 L979,1483 L379,1483 L379,1213 Z" /></clipPath>
<path d="M467,1342.75 L467,1276.6171875 C467,1274.4101563 468.7929688,1272.6171875 471,1272.6171875 L473,1272.6171875" style="fill:none;stroke:rgb(0,178,161);stroke-width:2" clip-path="url(#clip116)" />
<clipPath id="clip117"><path d="M379,1213 L979,1213 L979,1483 L379,1483 L379,1213 Z" /></clipPath>
<path d="M467,1342.75 L467,1410.6171875 C467,1412.8242188 468.7929688,1414.6171875 471,1414.6171875 L473,1414.6171875" style="fill:none;stroke:rgb(0,178,161);stroke-width:2" clip-path="url(#clip117)" />
<clipPath id="clip118"><path d="M379,1213 L979,1213 L979,1483 L379,1483 L379,1213 Z" /></clipPath>
<path d="M453,1342.6796875 L467,1342.75" style="fill:none;stroke:rgb(0,178,161);stroke-width:2" clip-path="url(#clip118)" />
<text x="390" y="1343" style="font:10px Dialog">零宽断言</text>
<clipPath id="clip119"><path d="M472,1213 L979,1213 L979,1338 L472,1338 L472,1213 Z" /></clipPath>
<path d="M534,1272.6875 L534,1231.8789063 C534,1229.671875 535.7929688,1227.8789063 538,1227.8789063 L540,1227.8789063" style="fill:none;stroke:rgb(0,178,161);stroke-width:2" clip-path="url(#clip119)" />
<clipPath id="clip120"><path d="M472,1213 L979,1213 L979,1338 L472,1338 L472,1213 Z" /></clipPath>
<path d="M534,1272.6875 L534,1262.8789063 C534,1260.671875 535.7929688,1258.8789063 538,1258.8789063 L540,1258.8789063" style="fill:none;stroke:rgb(0,178,161);stroke-width:2" clip-path="url(#clip120)" />
<clipPath id="clip121"><path d="M472,1213 L979,1213 L979,1338 L472,1338 L472,1213 Z" /></clipPath>
<path d="M534,1272.6875 L534,1285.8789063 C534,1288.0859375 535.7929688,1289.8789063 538,1289.8789063 L540,1289.8789063" style="fill:none;stroke:rgb(0,178,161);stroke-width:2" clip-path="url(#clip121)" />
<clipPath id="clip122"><path d="M472,1213 L979,1213 L979,1338 L472,1338 L472,1213 Z" /></clipPath>
<path d="M534,1272.6875 L534,1316.8789063 C534,1319.0859375 535.7929688,1320.8789063 538,1320.8789063 L540,1320.8789063" style="fill:none;stroke:rgb(0,178,161);stroke-width:2" clip-path="url(#clip122)" />
<clipPath id="clip123"><path d="M472,1213 L979,1213 L979,1338 L472,1338 L472,1213 Z" /></clipPath>
<path d="M520,1272.6171875 L534,1272.6875" style="fill:none;stroke:rgb(0,178,161);stroke-width:2" clip-path="url(#clip123)" />
<text x="483" y="1273" style="font:10px Dialog">分类</text>
<clipPath id="clip124"><path d="M539,1213 L962,1213 L962,1245 L539,1245 L539,1213 Z" /></clipPath>
<path d="M705,1227.9453125 C705,1228.34375 706.7929688,1228.6640625 709,1228.6640625 L711,1228.6640625" style="fill:none;stroke:rgb(0,178,161);stroke-width:2" clip-path="url(#clip124)" />
<clipPath id="clip125"><path d="M539,1213 L962,1213 L962,1245 L539,1245 L539,1213 Z" /></clipPath>
<path d="M691,1227.875 L705,1227.9453125" style="fill:none;stroke:rgb(0,178,161);stroke-width:2" clip-path="url(#clip125)" />
<text x="550" y="1228" style="font:10px Dialog">零宽度正预测先行断言</text>
<clipPath id="clip126"><path d="M710,1214 L962,1214 L962,1245 L710,1245 L710,1214 Z" /></clipPath>
<path d="M791,1228.734375 C791,1229.3828125 792.7929688,1229.9101563 795,1229.9101563 L797,1229.9101563" style="fill:none;stroke:rgb(0,178,161);stroke-width:2" clip-path="url(#clip126)" />
<clipPath id="clip127"><path d="M710,1214 L962,1214 L962,1245 L710,1245 L710,1214 Z" /></clipPath>
<path d="M777,1228.6640625 L791,1228.734375" style="fill:none;stroke:rgb(0,178,161);stroke-width:2" clip-path="url(#clip127)" />
<text x="721" y="1229" style="font:10px Dialog">(?=exp)</text>
<text x="807" y="1230" style="font:10px Dialog">当前位置的之后匹配 exp</text>
<clipPath id="clip128"><path d="M539,1244 L969,1244 L969,1276 L539,1276 L539,1244 Z" /></clipPath>
<path d="M705,1258.9453125 C705,1259.3515625 706.7929688,1259.6835938 709,1259.6835938 L711,1259.6835938" style="fill:none;stroke:rgb(0,178,161);stroke-width:2" clip-path="url(#clip128)" />
<clipPath id="clip129"><path d="M539,1244 L969,1244 L969,1276 L539,1276 L539,1244 Z" /></clipPath>
<path d="M691,1258.875 L705,1258.9453125" style="fill:none;stroke:rgb(0,178,161);stroke-width:2" clip-path="url(#clip129)" />
<text x="550" y="1259" style="font:10px Dialog">零宽度正回顾后发断言</text>
<clipPath id="clip130"><path d="M710,1245 L969,1245 L969,1276 L710,1276 L710,1245 Z" /></clipPath>
<path d="M798,1259.75 C798,1260.390625 799.7929688,1260.9101563 802,1260.9101563 L804,1260.9101563" style="fill:none;stroke:rgb(0,178,161);stroke-width:2" clip-path="url(#clip130)" />
<clipPath id="clip131"><path d="M710,1245 L969,1245 L969,1276 L710,1276 L710,1245 Z" /></clipPath>
<path d="M784,1259.6796875 L798,1259.75" style="fill:none;stroke:rgb(0,178,161);stroke-width:2" clip-path="url(#clip131)" />
<text x="721" y="1260" style="font:10px Dialog">(?&lt;=exp)</text>
<text x="814" y="1261" style="font:10px Dialog">当前位置的之前匹配 exp</text>
<clipPath id="clip132"><path d="M539,1275 L972,1275 L972,1307 L539,1307 L539,1275 Z" /></clipPath>
<path d="M705,1289.9453125 C705,1290.3398438 706.7929688,1290.6601563 709,1290.6601563 L711,1290.6601563" style="fill:none;stroke:rgb(0,178,161);stroke-width:2" clip-path="url(#clip132)" />
<clipPath id="clip133"><path d="M539,1275 L972,1275 L972,1307 L539,1307 L539,1275 Z" /></clipPath>
<path d="M691,1289.875 L705,1289.9453125" style="fill:none;stroke:rgb(0,178,161);stroke-width:2" clip-path="url(#clip133)" />
<text x="550" y="1290" style="font:10px Dialog">零宽度负预测先行断言</text>
<clipPath id="clip134"><path d="M710,1276 L972,1276 L972,1307 L710,1307 L710,1276 Z" /></clipPath>
<path d="M788,1290.7265625 C788,1291.3945313 789.7929688,1291.9414063 792,1291.9414063 L794,1291.9414063" style="fill:none;stroke:rgb(0,178,161);stroke-width:2" clip-path="url(#clip134)" />
<clipPath id="clip135"><path d="M710,1276 L972,1276 L972,1307 L710,1307 L710,1276 Z" /></clipPath>
<path d="M774,1290.65625 L788,1290.7265625" style="fill:none;stroke:rgb(0,178,161);stroke-width:2" clip-path="url(#clip135)" />
<text x="721" y="1291" style="font:10px Dialog">(?!exp)</text>
<text x="804" y="1292" style="font:10px Dialog">当前位置的之后不匹配 exp</text>
<clipPath id="clip136"><path d="M539,1306 L979,1306 L979,1338 L539,1338 L539,1306 Z" /></clipPath>
<path d="M705,1320.9453125 C705,1321.3476563 706.7929688,1321.6757813 709,1321.6757813 L711,1321.6757813" style="fill:none;stroke:rgb(0,178,161);stroke-width:2" clip-path="url(#clip136)" />
<clipPath id="clip137"><path d="M539,1306 L979,1306 L979,1338 L539,1338 L539,1306 Z" /></clipPath>
<path d="M691,1320.875 L705,1320.9453125" style="fill:none;stroke:rgb(0,178,161);stroke-width:2" clip-path="url(#clip137)" />
<text x="550" y="1321" style="font:10px Dialog">零宽度负回顾后发断言</text>
<clipPath id="clip138"><path d="M710,1307 L979,1307 L979,1338 L710,1338 L710,1307 Z" /></clipPath>
<path d="M795,1321.7460938 C795,1322.40625 796.7929688,1322.9414063 799,1322.9414063 L801,1322.9414063" style="fill:none;stroke:rgb(0,178,161);stroke-width:2" clip-path="url(#clip138)" />
<clipPath id="clip139"><path d="M710,1307 L979,1307 L979,1338 L710,1338 L710,1307 Z" /></clipPath>
<path d="M781,1321.6757813 L795,1321.7460938" style="fill:none;stroke:rgb(0,178,161);stroke-width:2" clip-path="url(#clip139)" />
<text x="721" y="1322" style="font:10px Dialog">(?&lt;!exp)</text>
<text x="811" y="1323" style="font:10px Dialog">当前位置的之前不匹配 exp</text>
<clipPath id="clip140"><path d="M472,1337 L955,1337 L955,1483 L472,1483 L472,1337 Z" /></clipPath>
<path d="M534,1414.6875 L534,1383.6171875 C534,1381.4101563 535.7929688,1379.6171875 538,1379.6171875 L540,1379.6171875" style="fill:none;stroke:rgb(0,178,161);stroke-width:2" clip-path="url(#clip140)" />
<clipPath id="clip141"><path d="M472,1337 L955,1337 L955,1483 L472,1483 L472,1337 Z" /></clipPath>
<path d="M534,1414.6875 L534,1448.6484375 C534,1450.859375 535.7929688,1452.6484375 538,1452.6484375 L540,1452.6484375" style="fill:none;stroke:rgb(0,178,161);stroke-width:2" clip-path="url(#clip141)" />
<clipPath id="clip142"><path d="M472,1337 L955,1337 L955,1483 L472,1483 L472,1337 Z" /></clipPath>
<path d="M520,1414.6171875 L534,1414.6875" style="fill:none;stroke:rgb(0,178,161);stroke-width:2" clip-path="url(#clip142)" />
<text x="483" y="1415" style="font:10px Dialog">记忆</text>
<clipPath id="clip143"><path d="M539,1337 L955,1337 L955,1425 L539,1425 L539,1337 Z" /></clipPath>
<path d="M601,1379.6875 L601,1355.9453125 C601,1353.7382813 602.7929688,1351.9453125 605,1351.9453125 L607,1351.9453125" style="fill:none;stroke:rgb(0,178,161);stroke-width:2" clip-path="url(#clip143)" />
<clipPath id="clip144"><path d="M539,1337 L955,1337 L955,1425 L539,1425 L539,1337 Z" /></clipPath>
<path d="M601,1379.6875 C601,1380.5039063 602.7929688,1381.171875 605,1381.171875 L607,1381.171875" style="fill:none;stroke:rgb(0,178,161);stroke-width:2" clip-path="url(#clip144)" />
<clipPath id="clip145"><path d="M539,1337 L955,1337 L955,1425 L539,1425 L539,1337 Z" /></clipPath>
<path d="M601,1379.6875 L601,1406.3632813 C601,1408.5742188 602.7929688,1410.3632813 605,1410.3632813 L607,1410.3632813" style="fill:none;stroke:rgb(0,178,161);stroke-width:2" clip-path="url(#clip145)" />
<clipPath id="clip146"><path d="M539,1337 L955,1337 L955,1425 L539,1425 L539,1337 Z" /></clipPath>
<path d="M587,1379.6171875 L601,1379.6875" style="fill:none;stroke:rgb(0,178,161);stroke-width:2" clip-path="url(#clip146)" />
<text x="550" y="1380" style="font:10px Dialog">名称</text>
<text x="617" y="1352" style="font:10px Dialog">正就是匹配，负就是不匹配</text>
<text x="617" y="1381" style="font:10px Dialog">预测先行，断言之后；回顾后发，断言之前</text>
<text x="617" y="1410" style="font:10px Dialog">断言的位置：断言之后，正则之后；断言之前，正则之前</text>
<clipPath id="clip147"><path d="M539,1424 L838,1424 L838,1483 L539,1483 L539,1424 Z" /></clipPath>
<path d="M614,1452.71875 L614,1442.7578125 C614,1440.5507813 615.7929688,1438.7578125 618,1438.7578125 L620,1438.7578125" style="fill:none;stroke:rgb(0,178,161);stroke-width:2" clip-path="url(#clip147)" />
<clipPath id="clip148"><path d="M539,1424 L838,1424 L838,1483 L539,1483 L539,1424 Z" /></clipPath>
<path d="M614,1452.71875 L614,1464.0390625 C614,1466.2460938 615.7929688,1468.0390625 618,1468.0390625 L620,1468.0390625" style="fill:none;stroke:rgb(0,178,161);stroke-width:2" clip-path="url(#clip148)" />
<clipPath id="clip149"><path d="M539,1424 L838,1424 L838,1483 L539,1483 L539,1424 Z" /></clipPath>
<path d="M600,1452.6484375 L614,1452.71875" style="fill:none;stroke:rgb(0,178,161);stroke-width:2" clip-path="url(#clip149)" />
<text x="550" y="1453" style="font:10px Dialog">表达式</text>
<text x="630" y="1439" style="font:10px Dialog">= 是正，! 是负</text>
<text x="630" y="1468" style="font:10px Dialog">无 &lt; 是预测先行，有 &lt; 是回顾后发</text>
<clipPath id="clip150"><path d="M379,1482 L552,1482 L552,1513 L379,1513 L379,1482 Z" /></clipPath>
<path d="M444,1496.6953125 C444,1497.2773438 445.7929688,1497.75 448,1497.75 L450,1497.75" style="fill:none;stroke:rgb(0,178,161);stroke-width:2" clip-path="url(#clip150)" />
<clipPath id="clip151"><path d="M379,1482 L552,1482 L552,1513 L379,1513 L379,1482 Z" /></clipPath>
<path d="M430,1496.625 L444,1496.6953125" style="fill:none;stroke:rgb(0,178,161);stroke-width:2" clip-path="url(#clip151)" />
<text x="390" y="1497" style="font:10px Dialog"> 注释</text>
<text x="460" y="1498" style="font:10px Dialog">(?#xxxxxxxx)</text>
<clipPath id="clip152"><path d="M231,1521 L813,1521 L813,1698 L231,1698 L231,1521 Z" /></clipPath>
<path d="M341,1606.8046875 L341,1549.6757813 L347,1549.6757813" style="fill:none;stroke:rgb(255,221,0);stroke-width:2" clip-path="url(#clip152)" />
<clipPath id="clip153"><path d="M231,1521 L813,1521 L813,1698 L231,1698 L231,1521 Z" /></clipPath>
<path d="M341,1606.8046875 L341,1607.6757813 L347,1607.6757813" style="fill:none;stroke:rgb(255,221,0);stroke-width:2" clip-path="url(#clip153)" />
<clipPath id="clip154"><path d="M231,1521 L813,1521 L813,1698 L231,1698 L231,1521 Z" /></clipPath>
<path d="M341,1606.8046875 L341,1665.9765625 L347,1665.9765625" style="fill:none;stroke:rgb(255,221,0);stroke-width:2" clip-path="url(#clip154)" />
<clipPath id="clip155"><path d="M231,1521 L813,1521 L813,1698 L231,1698 L231,1521 Z" /></clipPath>
<path d="M327,1606.734375 L341,1606.8046875" style="fill:none;stroke:rgb(255,221,0);stroke-width:2" clip-path="url(#clip155)" />
<text x="245" y="1607" style="font:13px Dialog">在线工具</text>
<clipPath id="clip156"><path d="M346,1521 L647,1521 L647,1580 L346,1580 L346,1521 Z" /></clipPath>
<path d="M431,1549.7460938 L431,1539.8554688 C431,1537.6484375 432.7929688,1535.8554688 435,1535.8554688 L437,1535.8554688" style="fill:none;stroke:rgb(255,221,0);stroke-width:2" clip-path="url(#clip156)" />
<clipPath id="clip157"><path d="M346,1521 L647,1521 L647,1580 L346,1580 L346,1521 Z" /></clipPath>
<path d="M431,1549.7460938 L431,1561.0195313 C431,1563.2265625 432.7929688,1565.0195313 435,1565.0195313 L437,1565.0195313" style="fill:none;stroke:rgb(255,221,0);stroke-width:2" clip-path="url(#clip157)" />
<clipPath id="clip158"><path d="M346,1521 L647,1521 L647,1580 L346,1580 L346,1521 Z" /></clipPath>
<path d="M417,1549.6757813 L431,1549.7460938" style="fill:none;stroke:rgb(255,221,0);stroke-width:2" clip-path="url(#clip158)" />
<text x="357" y="1550" style="font:10px Dialog">Rubular</text>
<text x="447" y="1536" style="font:10px Dialog">http://rubular.com/</text>
<text x="447" y="1565" style="font:10px Dialog">ruby 写的，对分组断言支持良好</text>
<clipPath id="clip159"><path d="M346,1579 L748,1579 L748,1638 L346,1638 L346,1579 Z" /></clipPath>
<path d="M431,1607.7460938 L431,1597.953125 C431,1595.7460938 432.7929688,1593.953125 435,1593.953125 L437,1593.953125" style="fill:none;stroke:rgb(255,221,0);stroke-width:2" clip-path="url(#clip159)" />
<clipPath id="clip160"><path d="M346,1579 L748,1579 L748,1638 L346,1638 L346,1579 Z" /></clipPath>
<path d="M431,1607.7460938 L431,1619.2773438 C431,1621.484375 432.7929688,1623.2773438 435,1623.2773438 L437,1623.2773438" style="fill:none;stroke:rgb(255,221,0);stroke-width:2" clip-path="url(#clip160)" />
<clipPath id="clip161"><path d="M346,1579 L748,1579 L748,1638 L346,1638 L346,1579 Z" /></clipPath>
<path d="M417,1607.6757813 L431,1607.7460938" style="fill:none;stroke:rgb(255,221,0);stroke-width:2" clip-path="url(#clip161)" />
<text x="357" y="1608" style="font:10px Dialog">pyregex</text>
<text x="447" y="1594" style="font:10px Dialog">http://www.pyregex.com/</text>
<text x="447" y="1623" style="font:10px Dialog">pythone 写的，正则表达式的格式个别与语言有关</text>
<clipPath id="clip162"><path d="M346,1637 L813,1637 L813,1698 L346,1698 L346,1637 Z" /></clipPath>
<path d="M551,1666.046875 L551,1655.6953125 C551,1653.4882813 552.7929688,1651.6953125 555,1651.6953125 L557,1651.6953125" style="fill:none;stroke:rgb(255,221,0);stroke-width:2" clip-path="url(#clip162)" />
<clipPath id="clip163"><path d="M346,1637 L813,1637 L813,1698 L346,1698 L346,1637 Z" /></clipPath>
<path d="M551,1666.046875 L551,1677.6757813 C551,1679.8828125 552.7929688,1681.6757813 555,1681.6757813 L557,1681.6757813" style="fill:none;stroke:rgb(255,221,0);stroke-width:2" clip-path="url(#clip163)" />
<clipPath id="clip164"><path d="M346,1637 L813,1637 L813,1698 L346,1698 L346,1637 Z" /></clipPath>
<path d="M537,1665.9765625 L551,1666.046875" style="fill:none;stroke:rgb(255,221,0);stroke-width:2" clip-path="url(#clip164)" />
<text x="357" y="1666" style="font:10px Dialog">js 写的，对分组断言支持不好</text>
<clipPath id="clip165"><path d="M556,1637 L813,1637 L813,1668 L556,1668 L556,1637 Z" /></clipPath>
<path d="M649,1651.765625 C649,1652.3867188 650.7929688,1652.890625 653,1652.890625 L655,1652.890625" style="fill:none;stroke:rgb(255,221,0);stroke-width:2" clip-path="url(#clip165)" />
<clipPath id="clip166"><path d="M556,1637 L813,1637 L813,1668 L556,1668 L556,1637 Z" /></clipPath>
<path d="M635,1651.6953125 L649,1651.765625" style="fill:none;stroke:rgb(255,221,0);stroke-width:2" clip-path="url(#clip166)" />
<text x="567" y="1652" style="font:10px Dialog">Regexper</text>
<text x="665" y="1653" style="font:10px Dialog">https://regexper.com/</text>
<clipPath id="clip167"><path d="M556,1667 L810,1667 L810,1698 L556,1698 L556,1667 Z" /></clipPath>
<path d="M641,1681.7460938 C641,1682.3867188 642.7929688,1682.90625 645,1682.90625 L647,1682.90625" style="fill:none;stroke:rgb(255,221,0);stroke-width:2" clip-path="url(#clip167)" />
<clipPath id="clip168"><path d="M556,1667 L810,1667 L810,1698 L556,1698 L556,1667 Z" /></clipPath>
<path d="M627,1681.6757813 L641,1681.7460938" style="fill:none;stroke:rgb(255,221,0);stroke-width:2" clip-path="url(#clip168)" />
<text x="567" y="1682" style="font:10px Dialog">Regulex</text>
<text x="657" y="1683" style="font:10px Dialog">https://jex.im/regulex/</text>
</svg>
